{"title":"Kick Ass 2 webrip [mindcrasher]","uid":8891087,"size":1221416960,"categoryP":"video","categoryS":"movies","magnet":"?xt=urn:btih:a6d7fb69b3196d55369de2b70a219e8aa5b07375&amp;dn=Kick+Ass+2+webrip+%5Bmindcrasher%5D&amp;tr=udp%3A%2F%2Ftracker.openbittorrent.com%3A80&amp;tr=udp%3A%2F%2Fopen.demonii.com%3A1337&amp;tr=udp%3A%2F%2Ftracker.coppersurfer.tk%3A6969&amp;tr=udp%3A%2F%2Fexodus.desync.com%3A6969","seeders":1,"leechers":0,"uploader":"mindcrasher","files":-1,"time":1378584744,"description":"Format                                   : AVI\nFormat/Info                              : Audio Video Interleave\nFile size                                : 1.12 GiB\nDuration                                 : 1h 38mn\nOverall bit rate                         : 1 630 Kbps\nWriting application                      : VirtualDubMod 1.5.10.2 (build 2540/release)\nWriting library                          : VirtualDubMod build 2540/release\n\nVideo\nID                                       : 0\nFormat                                   : MPEG-4 Visual\nFormat profile                           : Advanced Simple@L5\nFormat settings, BVOP                    : 2\nFormat settings, QPel                    : No\nFormat settings, GMC                     : No warppoints\nFormat settings, Matrix                  : Default (H.263)\nMuxing mode                              : Packed bitstream\nCodec ID                                 : XVID\nCodec ID/Hint                            : XviD\nDuration                                 : 1h 38mn\nBit rate                                 : 1 492 Kbps\nWidth                                    : 720 pixels\nHeight                                   : 292 pixels\nDisplay aspect ratio                     : 16:9\nOriginal display aspect ratio            : 2.466\nFrame rate                               : 25.000 fps\nColor space                              : YUV\nChroma subsampling                       : 4:2:0\nBit depth                                : 8 bits\nScan type                                : Progressive\nCompression mode                         : Lossy\nBits/(Pixel*Frame)                       : 0.284\nStream size                              : 1.03 GiB (92%)\nWriting library                          : XviD 64\n\nAudio\nID                                       : 1\nFormat                                   : AC-3\nFormat/Info                              : Audio Coding 3\nMode extension                           : CM (complete main)\nFormat settings, Endianness              : Big\nCodec ID                                 : 2000\nDuration                                 : 1h 38mn\nBit rate mode                            : Constant\nBit rate                                 : 128 Kbps\nChannel(s)                               : 2 channels\nChannel positions                        : Front: L R\nSampling rate                            : 44.1 KHz\nBit depth                                : 16 bits\nCompression mode                         : Lossy\nStream size                              : 90.4 MiB (8%)\nAlignment                                : Split accross interleaves\nInterleave, duration                     : 40 ms (1.00 video frame)\nInterleave, preload duration             : 500 ms","torrent":{"xt":"urn:btih:a6d7fb69b3196d55369de2b70a219e8aa5b07375","amp;dn":"Kick+Ass+2+webrip+%5Bmindcrasher%5D","amp;tr":["udp%3A%2F%2Ftracker.openbittorrent.com%3A80","udp%3A%2F%2Fopen.demonii.com%3A1337","udp%3A%2F%2Ftracker.coppersurfer.tk%3A6969","udp%3A%2F%2Fexodus.desync.com%3A6969"],"infoHash":"a6d7fb69b3196d55369de2b70a219e8aa5b07375","infoHashBuffer":{"type":"Buffer","data":[166,215,251,105,179,25,109,85,54,157,226,183,10,33,158,138,165,176,115,117]},"announce":[],"urlList":[]}}